<svg xmlns="http://www.w3.org/2000/svg" xmlns:xlink="http://www.w3.org/1999/xlink" width="24" height="24" viewBox="0 0 24 24">
    <defs>
        <path id="b" d="M12 0c6.627 0 12 5.373 12 12s-5.373 12-12 12S0 18.627 0 12 5.373 0 12 0z"/>
        <filter id="a" width="241.7%" height="241.7%" x="-70.8%" y="-54.2%" filterUnits="objectBoundingBox">
            <feOffset dy="4" in="SourceAlpha" result="shadowOffsetOuter1"/>
            <feGaussianBlur in="shadowOffsetOuter1" result="shadowBlurOuter1" stdDeviation="5"/>
            <feComposite in="shadowBlurOuter1" in2="SourceAlpha" operator="out" result="shadowBlurOuter1"/>
            <feColorMatrix in="shadowBlurOuter1" values="0 0 0 0 0.07450981 0 0 0 0 0.07450981 0 0 0 0 0.078431375 0 0 0 0.1 0"/>
        </filter>
    </defs>
    <g fill="none" fill-rule="evenodd">
        <g>
            <use fill="#000" filter="url(#a)" xlink:href="#b"/>
            <path fill="#FFF" stroke="#F2F2F5" stroke-linejoin="square" stroke-width=".5" d="M12 .25C5.51.25.25 5.51.25 12S5.51 23.75 12 23.75 23.75 18.49 23.75 12 18.49.25 12 .25z"/>
        </g>
        <g>
            <circle cx="12" cy="12" r="11.5" stroke="#DEC87D"/>
            <path fill="#2F2F2F" d="M15.823 12.045l-1.253 1.263-2.506 2.528-2.506-2.528-1.253-1.263a1.798 1.798 0 0 1 0-2.528 1.761 1.761 0 0 1 2.506 0l1.253 1.264 1.254-1.264a1.761 1.761 0 0 1 2.505 0c.692.698.692 1.83 0 2.528m.627-3.16a2.642 2.642 0 0 0-3.76 0l-.626.632-.626-.632a2.642 2.642 0 0 0-3.76 0 2.697 2.697 0 0 0 0 3.792l.627.631 3.76 3.792 3.758-3.792.627-.631a2.697 2.697 0 0 0 0-3.792"/>
        </g>
    </g>
</svg>
